<?xml version="1.0" standalone="no"?>
<!DOCTYPE svg PUBLIC "-//W3C//DTD SVG 20010904//EN"
 "http://www.w3.org/TR/2001/REC-SVG-20010904/DTD/svg10.dtd">
<svg version="1.0" xmlns="http://www.w3.org/2000/svg"
 width="307.000000pt" height="75.000000pt" viewBox="0 0 307.000000 75.000000"
 preserveAspectRatio="xMidYMid meet">

<g transform="translate(0.000000,75.000000) scale(0.100000,-0.100000)"
fill="#FD6A00" stroke="none">
<path d="M1660 365 l0 -355 690 0 690 0 0 355 0 355 -690 0 -690 0 0 -355z
m485 48 c15 -43 30 -81 34 -85 3 -4 19 31 35 77 l29 85 38 0 39 0 0 -125 0
-125 -25 0 c-24 0 -24 2 -27 93 l-3 92 -31 -90 c-27 -77 -35 -90 -55 -93 -22
-3 -27 5 -56 85 l-32 88 0 -87 c-1 -87 -1 -88 -26 -88 l-25 0 0 125 0 125 39
0 38 0 28 -77z m285 -48 l0 -125 -25 0 -25 0 0 125 0 125 25 0 25 0 0 -125z
m229 8 c22 -65 41 -121 41 -125 0 -5 -13 -8 -29 -8 -24 0 -29 5 -35 31 -6 29
-7 30 -53 27 -41 -3 -48 -6 -53 -28 -4 -19 -13 -26 -38 -28 l-32 -3 31 83 c17
46 38 102 46 126 13 38 18 42 48 42 l32 0 42 -117z m-121 -210 c-98 -2 -258
-2 -355 0 -98 1 -18 2 177 2 195 0 275 -1 178 -2z"/>
<path d="M2567 387 l-16 -47 30 0 c32 0 34 7 15 60 l-13 34 -16 -47z"/>
</g>
</svg>
